<svg width="398"
     height="200"
     viewBox="0 0 398 200"
     fill="#80CBC4"
     xmlns="http://www.w3.org/2000/svg">
  <circle cx="397"
          cy="1"
          r="1"
          transform="rotate(90 397 1)"
           />
  <circle cx="397"
          cy="19"
          r="1"
          transform="rotate(90 397 19)"
           />
  <circle cx="397"
          cy="37"
          r="1"
          transform="rotate(90 397 37)"
           />
  <circle cx="397"
          cy="55"
          r="1"
          transform="rotate(90 397 55)"
           />
  <circle cx="397"
          cy="73"
          r="1"
          transform="rotate(90 397 73)"
           />
  <circle cx="397"
          cy="91"
          r="1"
          transform="rotate(90 397 91)"
           />
  <circle cx="397"
          cy="109"
          r="1"
          transform="rotate(90 397 109)"
           />
  <circle cx="397"
          cy="127"
          r="1"
          transform="rotate(90 397 127)"
           />
  <circle cx="397"
          cy="145"
          r="1"
          transform="rotate(90 397 145)"
           />
  <circle cx="397"
          cy="163"
          r="1"
          transform="rotate(90 397 163)"
           />
  <circle cx="397"
          cy="181"
          r="1"
          transform="rotate(90 397 181)"
           />
  <circle cx="397"
          cy="199"
          r="1"
          transform="rotate(90 397 199)"
           />
  <circle cx="379"
          cy="1"
          r="1"
          transform="rotate(90 379 1)"
           />
  <circle cx="379"
          cy="19"
          r="1"
          transform="rotate(90 379 19)"
           />
  <circle cx="379"
          cy="37"
          r="1"
          transform="rotate(90 379 37)"
           />
  <circle cx="379"
          cy="55"
          r="1"
          transform="rotate(90 379 55)"
           />
  <circle cx="379"
          cy="73"
          r="1"
          transform="rotate(90 379 73)"
           />
  <circle cx="379"
          cy="91"
          r="1"
          transform="rotate(90 379 91)"
           />
  <circle cx="379"
          cy="109"
          r="1"
          transform="rotate(90 379 109)"
           />
  <circle cx="379"
          cy="127"
          r="1"
          transform="rotate(90 379 127)"
           />
  <circle cx="379"
          cy="145"
          r="1"
          transform="rotate(90 379 145)"
           />
  <circle cx="379"
          cy="163"
          r="1"
          transform="rotate(90 379 163)"
           />
  <circle cx="379"
          cy="181"
          r="1"
          transform="rotate(90 379 181)"
           />
  <circle cx="379"
          cy="199"
          r="1"
          transform="rotate(90 379 199)"
           />
  <circle cx="361"
          cy="1"
          r="1"
          transform="rotate(90 361 1)"
           />
  <circle cx="361"
          cy="19"
          r="1"
          transform="rotate(90 361 19)"
           />
  <circle cx="361"
          cy="37"
          r="1"
          transform="rotate(90 361 37)"
           />
  <circle cx="361"
          cy="55"
          r="1"
          transform="rotate(90 361 55)"
           />
  <circle cx="361"
          cy="73"
          r="1"
          transform="rotate(90 361 73)"
           />
  <circle cx="361"
          cy="91"
          r="1"
          transform="rotate(90 361 91)"
           />
  <circle cx="361"
          cy="109"
          r="1"
          transform="rotate(90 361 109)"
           />
  <circle cx="361"
          cy="127"
          r="1"
          transform="rotate(90 361 127)"
           />
  <circle cx="361"
          cy="145"
          r="1"
          transform="rotate(90 361 145)"
           />
  <circle cx="361"
          cy="163"
          r="1"
          transform="rotate(90 361 163)"
           />
  <circle cx="361"
          cy="181"
          r="1"
          transform="rotate(90 361 181)"
           />
  <circle cx="361"
          cy="199"
          r="1"
          transform="rotate(90 361 199)"
           />
  <circle cx="343"
          cy="1"
          r="1"
          transform="rotate(90 343 1)"
           />
  <circle cx="343"
          cy="19"
          r="1"
          transform="rotate(90 343 19)"
           />
  <circle cx="343"
          cy="37"
          r="1"
          transform="rotate(90 343 37)"
           />
  <circle cx="343"
          cy="55"
          r="1"
          transform="rotate(90 343 55)"
           />
  <circle cx="343"
          cy="73"
          r="1"
          transform="rotate(90 343 73)"
           />
  <circle cx="343"
          cy="91"
          r="1"
          transform="rotate(90 343 91)"
           />
  <circle cx="343"
          cy="109"
          r="1"
          transform="rotate(90 343 109)"
           />
  <circle cx="343"
          cy="127"
          r="1"
          transform="rotate(90 343 127)"
           />
  <circle cx="343"
          cy="145"
          r="1"
          transform="rotate(90 343 145)"
           />
  <circle cx="343"
          cy="163"
          r="1"
          transform="rotate(90 343 163)"
           />
  <circle cx="343"
          cy="181"
          r="1"
          transform="rotate(90 343 181)"
           />
  <circle cx="343"
          cy="199"
          r="1"
          transform="rotate(90 343 199)"
           />
  <circle cx="325"
          cy="1"
          r="1"
          transform="rotate(90 325 1)"
           />
  <circle cx="325"
          cy="19"
          r="1"
          transform="rotate(90 325 19)"
           />
  <circle cx="325"
          cy="37"
          r="1"
          transform="rotate(90 325 37)"
           />
  <circle cx="325"
          cy="55"
          r="1"
          transform="rotate(90 325 55)"
           />
  <circle cx="325"
          cy="73"
          r="1"
          transform="rotate(90 325 73)"
           />
  <circle cx="325"
          cy="91"
          r="1"
          transform="rotate(90 325 91)"
           />
  <circle cx="325"
          cy="109"
          r="1"
          transform="rotate(90 325 109)"
           />
  <circle cx="325"
          cy="127"
          r="1"
          transform="rotate(90 325 127)"
           />
  <circle cx="325"
          cy="145"
          r="1"
          transform="rotate(90 325 145)"
           />
  <circle cx="325"
          cy="163"
          r="1"
          transform="rotate(90 325 163)"
           />
  <circle cx="325"
          cy="181"
          r="1"
          transform="rotate(90 325 181)"
           />
  <circle cx="325"
          cy="199"
          r="1"
          transform="rotate(90 325 199)"
           />
  <circle cx="307"
          cy="1"
          r="1"
          transform="rotate(90 307 1)"
           />
  <circle cx="307"
          cy="19"
          r="1"
          transform="rotate(90 307 19)"
           />
  <circle cx="307"
          cy="37"
          r="1"
          transform="rotate(90 307 37)"
           />
  <circle cx="307"
          cy="55"
          r="1"
          transform="rotate(90 307 55)"
           />
  <circle cx="307"
          cy="73"
          r="1"
          transform="rotate(90 307 73)"
           />
  <circle cx="307"
          cy="91"
          r="1"
          transform="rotate(90 307 91)"
           />
  <circle cx="307"
          cy="109"
          r="1"
          transform="rotate(90 307 109)"
           />
  <circle cx="307"
          cy="127"
          r="1"
          transform="rotate(90 307 127)"
           />
  <circle cx="307"
          cy="145"
          r="1"
          transform="rotate(90 307 145)"
           />
  <circle cx="307"
          cy="163"
          r="1"
          transform="rotate(90 307 163)"
           />
  <circle cx="307"
          cy="181"
          r="1"
          transform="rotate(90 307 181)"
           />
  <circle cx="307"
          cy="199"
          r="1"
          transform="rotate(90 307 199)"
           />
  <circle cx="289"
          cy="1"
          r="1"
          transform="rotate(90 289 1)"
           />
  <circle cx="289"
          cy="19"
          r="1"
          transform="rotate(90 289 19)"
           />
  <circle cx="289"
          cy="37"
          r="1"
          transform="rotate(90 289 37)"
           />
  <circle cx="289"
          cy="55"
          r="1"
          transform="rotate(90 289 55)"
           />
  <circle cx="289"
          cy="73"
          r="1"
          transform="rotate(90 289 73)"
           />
  <circle cx="289"
          cy="91"
          r="1"
          transform="rotate(90 289 91)"
           />
  <circle cx="289"
          cy="109"
          r="1"
          transform="rotate(90 289 109)"
           />
  <circle cx="289"
          cy="127"
          r="1"
          transform="rotate(90 289 127)"
           />
  <circle cx="289"
          cy="145"
          r="1"
          transform="rotate(90 289 145)"
           />
  <circle cx="289"
          cy="163"
          r="1"
          transform="rotate(90 289 163)"
           />
  <circle cx="289"
          cy="181"
          r="1"
          transform="rotate(90 289 181)"
           />
  <circle cx="289"
          cy="199"
          r="1"
          transform="rotate(90 289 199)"
           />
  <circle cx="271"
          cy="1"
          r="1"
          transform="rotate(90 271 1)"
           />
  <circle cx="271"
          cy="19"
          r="1"
          transform="rotate(90 271 19)"
           />
  <circle cx="271"
          cy="37"
          r="1"
          transform="rotate(90 271 37)"
           />
  <circle cx="271"
          cy="55"
          r="1"
          transform="rotate(90 271 55)"
           />
  <circle cx="271"
          cy="73"
          r="1"
          transform="rotate(90 271 73)"
           />
  <circle cx="271"
          cy="91"
          r="1"
          transform="rotate(90 271 91)"
           />
  <circle cx="271"
          cy="109"
          r="1"
          transform="rotate(90 271 109)"
           />
  <circle cx="271"
          cy="127"
          r="1"
          transform="rotate(90 271 127)"
           />
  <circle cx="271"
          cy="145"
          r="1"
          transform="rotate(90 271 145)"
           />
  <circle cx="271"
          cy="163"
          r="1"
          transform="rotate(90 271 163)"
           />
  <circle cx="271"
          cy="181"
          r="1"
          transform="rotate(90 271 181)"
           />
  <circle cx="271"
          cy="199"
          r="1"
          transform="rotate(90 271 199)"
           />
  <circle cx="253"
          cy="1"
          r="1"
          transform="rotate(90 253 1)"
           />
  <circle cx="253"
          cy="19"
          r="1"
          transform="rotate(90 253 19)"
           />
  <circle cx="253"
          cy="37"
          r="1"
          transform="rotate(90 253 37)"
           />
  <circle cx="253"
          cy="55"
          r="1"
          transform="rotate(90 253 55)"
           />
  <circle cx="253"
          cy="73"
          r="1"
          transform="rotate(90 253 73)"
           />
  <circle cx="253"
          cy="91"
          r="1"
          transform="rotate(90 253 91)"
           />
  <circle cx="253"
          cy="109"
          r="1"
          transform="rotate(90 253 109)"
           />
  <circle cx="253"
          cy="127"
          r="1"
          transform="rotate(90 253 127)"
           />
  <circle cx="253"
          cy="145"
          r="1"
          transform="rotate(90 253 145)"
           />
  <circle cx="253"
          cy="163"
          r="1"
          transform="rotate(90 253 163)"
           />
  <circle cx="253"
          cy="181"
          r="1"
          transform="rotate(90 253 181)"
           />
  <circle cx="253"
          cy="199"
          r="1"
          transform="rotate(90 253 199)"
           />
  <circle cx="235"
          cy="1"
          r="1"
          transform="rotate(90 235 1)"
           />
  <circle cx="235"
          cy="19"
          r="1"
          transform="rotate(90 235 19)"
           />
  <circle cx="235"
          cy="37"
          r="1"
          transform="rotate(90 235 37)"
           />
  <circle cx="235"
          cy="55"
          r="1"
          transform="rotate(90 235 55)"
           />
  <circle cx="235"
          cy="73"
          r="1"
          transform="rotate(90 235 73)"
           />
  <circle cx="235"
          cy="91"
          r="1"
          transform="rotate(90 235 91)"
           />
  <circle cx="235"
          cy="109"
          r="1"
          transform="rotate(90 235 109)"
           />
  <circle cx="235"
          cy="127"
          r="1"
          transform="rotate(90 235 127)"
           />
  <circle cx="235"
          cy="145"
          r="1"
          transform="rotate(90 235 145)"
           />
  <circle cx="235"
          cy="163"
          r="1"
          transform="rotate(90 235 163)"
           />
  <circle cx="235"
          cy="181"
          r="1"
          transform="rotate(90 235 181)"
           />
  <circle cx="235"
          cy="199"
          r="1"
          transform="rotate(90 235 199)"
           />
  <circle cx="217"
          cy="1"
          r="1"
          transform="rotate(90 217 1)"
           />
  <circle cx="217"
          cy="19"
          r="1"
          transform="rotate(90 217 19)"
           />
  <circle cx="217"
          cy="37"
          r="1"
          transform="rotate(90 217 37)"
           />
  <circle cx="217"
          cy="55"
          r="1"
          transform="rotate(90 217 55)"
           />
  <circle cx="217"
          cy="73"
          r="1"
          transform="rotate(90 217 73)"
           />
  <circle cx="217"
          cy="91"
          r="1"
          transform="rotate(90 217 91)"
           />
  <circle cx="217"
          cy="109"
          r="1"
          transform="rotate(90 217 109)"
           />
  <circle cx="217"
          cy="127"
          r="1"
          transform="rotate(90 217 127)"
           />
  <circle cx="217"
          cy="145"
          r="1"
          transform="rotate(90 217 145)"
           />
  <circle cx="217"
          cy="163"
          r="1"
          transform="rotate(90 217 163)"
           />
  <circle cx="217"
          cy="181"
          r="1"
          transform="rotate(90 217 181)"
           />
  <circle cx="217"
          cy="199"
          r="1"
          transform="rotate(90 217 199)"
           />
  <circle cx="199"
          cy="1"
          r="1"
          transform="rotate(90 199 1)"
           />
  <circle cx="199"
          cy="19"
          r="1"
          transform="rotate(90 199 19)"
           />
  <circle cx="199"
          cy="37"
          r="1"
          transform="rotate(90 199 37)"
           />
  <circle cx="199"
          cy="55"
          r="1"
          transform="rotate(90 199 55)"
           />
  <circle cx="199"
          cy="73"
          r="1"
          transform="rotate(90 199 73)"
           />
  <circle cx="199"
          cy="91"
          r="1"
          transform="rotate(90 199 91)"
           />
  <circle cx="199"
          cy="109"
          r="1"
          transform="rotate(90 199 109)"
           />
  <circle cx="199"
          cy="127"
          r="1"
          transform="rotate(90 199 127)"
           />
  <circle cx="199"
          cy="145"
          r="1"
          transform="rotate(90 199 145)"
           />
  <circle cx="199"
          cy="163"
          r="1"
          transform="rotate(90 199 163)"
           />
  <circle cx="199"
          cy="181"
          r="1"
          transform="rotate(90 199 181)"
           />
  <circle cx="199"
          cy="199"
          r="1"
          transform="rotate(90 199 199)"
           />
  <circle cx="181"
          cy="1"
          r="1"
          transform="rotate(90 181 1)"
           />
  <circle cx="181"
          cy="19"
          r="1"
          transform="rotate(90 181 19)"
           />
  <circle cx="181"
          cy="37"
          r="1"
          transform="rotate(90 181 37)"
           />
  <circle cx="181"
          cy="55"
          r="1"
          transform="rotate(90 181 55)"
           />
  <circle cx="181"
          cy="73"
          r="1"
          transform="rotate(90 181 73)"
           />
  <circle cx="181"
          cy="91"
          r="1"
          transform="rotate(90 181 91)"
           />
  <circle cx="181"
          cy="109"
          r="1"
          transform="rotate(90 181 109)"
           />
  <circle cx="181"
          cy="127"
          r="1"
          transform="rotate(90 181 127)"
           />
  <circle cx="181"
          cy="145"
          r="1"
          transform="rotate(90 181 145)"
           />
  <circle cx="181"
          cy="163"
          r="1"
          transform="rotate(90 181 163)"
           />
  <circle cx="181"
          cy="181"
          r="1"
          transform="rotate(90 181 181)"
           />
  <circle cx="181"
          cy="199"
          r="1"
          transform="rotate(90 181 199)"
           />
  <circle cx="163"
          cy="1"
          r="1"
          transform="rotate(90 163 1)"
           />
  <circle cx="163"
          cy="19"
          r="1"
          transform="rotate(90 163 19)"
           />
  <circle cx="163"
          cy="37"
          r="1"
          transform="rotate(90 163 37)"
           />
  <circle cx="163"
          cy="55"
          r="1"
          transform="rotate(90 163 55)"
           />
  <circle cx="163"
          cy="73"
          r="1"
          transform="rotate(90 163 73)"
           />
  <circle cx="163"
          cy="91"
          r="1"
          transform="rotate(90 163 91)"
           />
  <circle cx="163"
          cy="109"
          r="1"
          transform="rotate(90 163 109)"
           />
  <circle cx="163"
          cy="127"
          r="1"
          transform="rotate(90 163 127)"
           />
  <circle cx="163"
          cy="145"
          r="1"
          transform="rotate(90 163 145)"
           />
  <circle cx="163"
          cy="163"
          r="1"
          transform="rotate(90 163 163)"
           />
  <circle cx="163"
          cy="181"
          r="1"
          transform="rotate(90 163 181)"
           />
  <circle cx="163"
          cy="199"
          r="1"
          transform="rotate(90 163 199)"
           />
  <circle cx="145"
          cy="1"
          r="1"
          transform="rotate(90 145 1)"
           />
  <circle cx="145"
          cy="19"
          r="1"
          transform="rotate(90 145 19)"
           />
  <circle cx="145"
          cy="37"
          r="1"
          transform="rotate(90 145 37)"
           />
  <circle cx="145"
          cy="55"
          r="1"
          transform="rotate(90 145 55)"
           />
  <circle cx="145"
          cy="73"
          r="1"
          transform="rotate(90 145 73)"
           />
  <circle cx="145"
          cy="91"
          r="1"
          transform="rotate(90 145 91)"
           />
  <circle cx="145"
          cy="109"
          r="1"
          transform="rotate(90 145 109)"
           />
  <circle cx="145"
          cy="127"
          r="1"
          transform="rotate(90 145 127)"
           />
  <circle cx="145"
          cy="145"
          r="1"
          transform="rotate(90 145 145)"
           />
  <circle cx="145"
          cy="163"
          r="1"
          transform="rotate(90 145 163)"
           />
  <circle cx="145"
          cy="181"
          r="1"
          transform="rotate(90 145 181)"
           />
  <circle cx="145"
          cy="199"
          r="1"
          transform="rotate(90 145 199)"
           />
  <circle cx="127"
          cy="1"
          r="1"
          transform="rotate(90 127 1)"
           />
  <circle cx="127"
          cy="19"
          r="1"
          transform="rotate(90 127 19)"
           />
  <circle cx="127"
          cy="37"
          r="1"
          transform="rotate(90 127 37)"
           />
  <circle cx="127"
          cy="55"
          r="1"
          transform="rotate(90 127 55)"
           />
  <circle cx="127"
          cy="73"
          r="1"
          transform="rotate(90 127 73)"
           />
  <circle cx="127"
          cy="91"
          r="1"
          transform="rotate(90 127 91)"
           />
  <circle cx="127"
          cy="109"
          r="1"
          transform="rotate(90 127 109)"
           />
  <circle cx="127"
          cy="127"
          r="1"
          transform="rotate(90 127 127)"
           />
  <circle cx="127"
          cy="145"
          r="1"
          transform="rotate(90 127 145)"
           />
  <circle cx="127"
          cy="163"
          r="1"
          transform="rotate(90 127 163)"
           />
  <circle cx="127"
          cy="181"
          r="1"
          transform="rotate(90 127 181)"
           />
  <circle cx="127"
          cy="199"
          r="1"
          transform="rotate(90 127 199)"
           />
  <circle cx="109"
          cy="1"
          r="1"
          transform="rotate(90 109 1)"
           />
  <circle cx="109"
          cy="19"
          r="1"
          transform="rotate(90 109 19)"
           />
  <circle cx="109"
          cy="37"
          r="1"
          transform="rotate(90 109 37)"
           />
  <circle cx="109"
          cy="55"
          r="1"
          transform="rotate(90 109 55)"
           />
  <circle cx="109"
          cy="73"
          r="1"
          transform="rotate(90 109 73)"
           />
  <circle cx="109"
          cy="91"
          r="1"
          transform="rotate(90 109 91)"
           />
  <circle cx="109"
          cy="109"
          r="1"
          transform="rotate(90 109 109)"
           />
  <circle cx="109"
          cy="127"
          r="1"
          transform="rotate(90 109 127)"
           />
  <circle cx="109"
          cy="145"
          r="1"
          transform="rotate(90 109 145)"
           />
  <circle cx="109"
          cy="163"
          r="1"
          transform="rotate(90 109 163)"
           />
  <circle cx="109"
          cy="181"
          r="1"
          transform="rotate(90 109 181)"
           />
  <circle cx="109"
          cy="199"
          r="1"
          transform="rotate(90 109 199)"
           />
  <circle cx="91"
          cy="1"
          r="1"
          transform="rotate(90 91 1)"
           />
  <circle cx="91"
          cy="19"
          r="1"
          transform="rotate(90 91 19)"
           />
  <circle cx="91"
          cy="37"
          r="1"
          transform="rotate(90 91 37)"
           />
  <circle cx="91"
          cy="55"
          r="1"
          transform="rotate(90 91 55)"
           />
  <circle cx="91"
          cy="73"
          r="1"
          transform="rotate(90 91 73)"
           />
  <circle cx="91"
          cy="91"
          r="1"
          transform="rotate(90 91 91)"
           />
  <circle cx="91"
          cy="109"
          r="1"
          transform="rotate(90 91 109)"
           />
  <circle cx="91"
          cy="127"
          r="1"
          transform="rotate(90 91 127)"
           />
  <circle cx="91"
          cy="145"
          r="1"
          transform="rotate(90 91 145)"
           />
  <circle cx="91"
          cy="163"
          r="1"
          transform="rotate(90 91 163)"
           />
  <circle cx="91"
          cy="181"
          r="1"
          transform="rotate(90 91 181)"
           />
  <circle cx="91"
          cy="199"
          r="1"
          transform="rotate(90 91 199)"
           />
  <circle cx="73"
          cy="1"
          r="1"
          transform="rotate(90 73 1)"
           />
  <circle cx="73"
          cy="19"
          r="1"
          transform="rotate(90 73 19)"
           />
  <circle cx="73"
          cy="37"
          r="1"
          transform="rotate(90 73 37)"
           />
  <circle cx="73"
          cy="55"
          r="1"
          transform="rotate(90 73 55)"
           />
  <circle cx="73"
          cy="73"
          r="1"
          transform="rotate(90 73 73)"
           />
  <circle cx="73"
          cy="91"
          r="1"
          transform="rotate(90 73 91)"
           />
  <circle cx="73"
          cy="109"
          r="1"
          transform="rotate(90 73 109)"
           />
  <circle cx="73"
          cy="127"
          r="1"
          transform="rotate(90 73 127)"
           />
  <circle cx="73"
          cy="145"
          r="1"
          transform="rotate(90 73 145)"
           />
  <circle cx="73"
          cy="163"
          r="1"
          transform="rotate(90 73 163)"
           />
  <circle cx="73"
          cy="181"
          r="1"
          transform="rotate(90 73 181)"
           />
  <circle cx="73"
          cy="199"
          r="1"
          transform="rotate(90 73 199)"
           />
  <circle cx="55"
          cy="1"
          r="1"
          transform="rotate(90 55 1)"
           />
  <circle cx="55"
          cy="19"
          r="1"
          transform="rotate(90 55 19)"
           />
  <circle cx="55"
          cy="37"
          r="1"
          transform="rotate(90 55 37)"
           />
  <circle cx="55"
          cy="55"
          r="1"
          transform="rotate(90 55 55)"
           />
  <circle cx="55"
          cy="73"
          r="1"
          transform="rotate(90 55 73)"
           />
  <circle cx="55"
          cy="91"
          r="1"
          transform="rotate(90 55 91)"
           />
  <circle cx="55"
          cy="109"
          r="1"
          transform="rotate(90 55 109)"
           />
  <circle cx="55"
          cy="127"
          r="1"
          transform="rotate(90 55 127)"
           />
  <circle cx="55"
          cy="145"
          r="1"
          transform="rotate(90 55 145)"
           />
  <circle cx="55"
          cy="163"
          r="1"
          transform="rotate(90 55 163)"
           />
  <circle cx="55"
          cy="181"
          r="1"
          transform="rotate(90 55 181)"
           />
  <circle cx="55"
          cy="199"
          r="1"
          transform="rotate(90 55 199)"
           />
  <circle cx="37"
          cy="1"
          r="1"
          transform="rotate(90 37 1)"
           />
  <circle cx="37"
          cy="19"
          r="1"
          transform="rotate(90 37 19)"
           />
  <circle cx="37"
          cy="37"
          r="1"
          transform="rotate(90 37 37)"
           />
  <circle cx="37"
          cy="55"
          r="1"
          transform="rotate(90 37 55)"
           />
  <circle cx="37"
          cy="73"
          r="1"
          transform="rotate(90 37 73)"
           />
  <circle cx="37"
          cy="91"
          r="1"
          transform="rotate(90 37 91)"
           />
  <circle cx="37"
          cy="109"
          r="1"
          transform="rotate(90 37 109)"
           />
  <circle cx="37"
          cy="127"
          r="1"
          transform="rotate(90 37 127)"
           />
  <circle cx="37"
          cy="145"
          r="1"
          transform="rotate(90 37 145)"
           />
  <circle cx="37"
          cy="163"
          r="1"
          transform="rotate(90 37 163)"
           />
  <circle cx="37"
          cy="181"
          r="1"
          transform="rotate(90 37 181)"
           />
  <circle cx="37"
          cy="199"
          r="1"
          transform="rotate(90 37 199)"
           />
  <circle cx="19"
          cy="1"
          r="1"
          transform="rotate(90 19 1)"
           />
  <circle cx="19"
          cy="19"
          r="1"
          transform="rotate(90 19 19)"
           />
  <circle cx="19"
          cy="37"
          r="1"
          transform="rotate(90 19 37)"
           />
  <circle cx="19"
          cy="55"
          r="1"
          transform="rotate(90 19 55)"
           />
  <circle cx="19"
          cy="73"
          r="1"
          transform="rotate(90 19 73)"
           />
  <circle cx="19"
          cy="91"
          r="1"
          transform="rotate(90 19 91)"
           />
  <circle cx="19"
          cy="109"
          r="1"
          transform="rotate(90 19 109)"
           />
  <circle cx="19"
          cy="127"
          r="1"
          transform="rotate(90 19 127)"
           />
  <circle cx="19"
          cy="145"
          r="1"
          transform="rotate(90 19 145)"
           />
  <circle cx="19"
          cy="163"
          r="1"
          transform="rotate(90 19 163)"
           />
  <circle cx="19"
          cy="181"
          r="1"
          transform="rotate(90 19 181)"
           />
  <circle cx="19"
          cy="199"
          r="1"
          transform="rotate(90 19 199)"
           />
  <circle cx="1"
          cy="1"
          r="1"
          transform="rotate(90 1 1)"
           />
  <circle cx="1"
          cy="19"
          r="1"
          transform="rotate(90 1 19)"
           />
  <circle cx="1"
          cy="37"
          r="1"
          transform="rotate(90 1 37)"
           />
  <circle cx="1"
          cy="55"
          r="1"
          transform="rotate(90 1 55)"
           />
  <circle cx="1"
          cy="73"
          r="1"
          transform="rotate(90 1 73)"
           />
  <circle cx="1"
          cy="91"
          r="1"
          transform="rotate(90 1 91)"
           />
  <circle cx="1"
          cy="109"
          r="1"
          transform="rotate(90 1 109)"
           />
  <circle cx="1"
          cy="127"
          r="1"
          transform="rotate(90 1 127)"
           />
  <circle cx="1"
          cy="145"
          r="1"
          transform="rotate(90 1 145)"
           />
  <circle cx="1"
          cy="163"
          r="1"
          transform="rotate(90 1 163)"
           />
  <circle cx="1"
          cy="181"
          r="1"
          transform="rotate(90 1 181)"
           />
  <circle cx="1"
          cy="199"
          r="1"
          transform="rotate(90 1 199)"
           /></svg>
