<svg xmlns="http://www.w3.org/2000/svg" width="32" height="33"><path fill="#5B6282" d="M31.893 13.504c-.07-.522-.327-1.448-.327-1.448s-.28.783-.63 2.04c.553-5.514-2.22-8.84-2.883-9.23l.09.524c-.868-1.45-2.188-2.13-2.188-2.13s.049.306.125.91C23.413 1.587 19.882 0 16 0 11.45 0 7.374 2.172 4.621 5.581 3.779 4.54 3.702 3.09 3.702 3.09S1.707 5.203 2.089 9.075C1.317 10.238.593 11.623 0 15.177l.005-.015a.119.119 0 0 1-.004.02l.03-.096-.014.08.005-.015-.003.02s.033-.109.098-.294l.003-.016c.116-.33.332-.888.648-1.5l-.005.016-.01.019.01-.02c-.375 1.26-.662 3.194-.488 6.065v-.007l.001.012.012-.116.005.094.001-.007.001.013c.003-.043.02-.204.055-.455v-.012c.046-.329.122-.81.238-1.371.128 2.492.771 4.771 1.962 6.938 1.087 1.978 3.712 6.362 11.079 8.275-.587-.17-1.22-.711-1.22-.711 1.204.41 3.358.908 4.623.84-.16-.081-.715-.429-.715-.429 4.223.252 9.073-1.28 9.678-3.741.294-.163.597-.35.907-.575 1.921-1.385 4.344-4.519 3.569-6.744 1.15-2.435 1.798-5.328 1.422-7.94zm-5.941-6.436c-.798-.74-1.922-1.426-2.715-1.49 1.359 1.072 3.625 4.246 3.413 9.05-.612-1.66-1.451-2.349-1.451-2.349.278 3.373.361 4.576-.218 6.978-.168-.774-.395-1.206-.395-1.206-.243 2.853-2.017 6.192-2.809 5.614l-.003-.003c.023-.208.043-.426-.009-.565 0 0-.369.213-.593.53-.28.397-1.204 1.273-1.413 1.118.195-.064.351-.328.393-.587-1.123.834-3.51 1.18-6.081-.187.337-.04.842-.167 1.226.074-.385-.446-1.314-.353-1.98-.577-.58-.194-1.336-1.058-1.771-1.495.013.003 1.789.554 3.831-.174.354-.126.669-.3.937-.497.736-.54 1.795-1.34 2.281-1.256.019.003.038.004.057.01.586.139.977-.486.52-1.041-.455-.556-1.661-1.607-3.06-.904-3.842 1.934-6.404-.924-5.96-2.6.083-.314.4-.73.534-.758.746-.105 1.399.531 1.399.531s.359-1.17.077-2.194c.649-.867 2.935-1.636 3.405-2.857.111-.29.238-.968-.127-1.11-.605-.154-2.044-.16-2.575-.154-1.013.008-1.484-.927-1.64-1.323l-.001.004-.004-.012c.294-1.131.604-1.87 2.156-3.232-2.664-.41-4.203 1.85-4.205 1.852a6.773 6.773 0 0 0-2.22-.219C9.294 3.622 12.484 2.125 16 2.125c3.992 0 7.566 1.925 9.952 4.943z"/></svg>