<svg xmlns="http://www.w3.org/2000/svg" width="33" height="33"><path fill="#5B6282" d="M16.5.408C7.384.408 0 7.796 0 16.908 0 24.2 4.727 30.383 11.282 32.563c.825.155 1.127-.355 1.127-.794 0-.391-.013-1.43-.02-2.805-4.59.996-5.558-2.213-5.558-2.213-.75-1.905-1.836-2.414-1.836-2.414-1.494-1.023.116-1.002.116-1.002 1.657.116 2.527 1.7 2.527 1.7 1.471 2.523 3.863 1.794 4.806 1.372.148-1.067.573-1.794 1.045-2.207-3.665-.412-7.516-1.831-7.516-8.154 0-1.801.64-3.272 1.698-4.427-.186-.417-.742-2.094.144-4.367 0 0 1.382-.443 4.538 1.691a15.818 15.818 0 0 1 4.125-.557c1.402.008 2.805.19 4.125.557 3.135-2.134 4.517-1.691 4.517-1.691.887 2.273.33 3.95.165 4.367 1.052 1.155 1.691 2.626 1.691 4.427 0 6.339-3.857 7.735-7.528 8.14.578.495 1.114 1.507 1.114 3.053 0 2.208-.02 3.982-.02 4.518 0 .433.288.949 1.133.784C28.277 30.377 33 24.189 33 16.908c0-9.112-7.388-16.5-16.5-16.5"/></svg>