<svg xmlns="http://www.w3.org/2000/svg" width="91" height="34"><g fill="#5B6282"><path d="M86.085 4.726c.018-2.523-1.86-4.602-4.236-4.689a1.57 1.57 0 0 0-.186 0H57.086l-.496 2.204h25.127c1.268.024 2.285 1.12 2.288 2.465a2.555 2.555 0 0 1-.086.629l-3.666 16.66a.282.282 0 0 1-.064.112c-.345.933-1.19 1.55-2.134 1.56H54.132a.86.86 0 0 0-.564.221l-5.94 5.92 1.208-5.019c.02-.074.032-.15.035-.227a.877.877 0 0 0-.22-.63.776.776 0 0 0-.584-.261H4.406c-1.28-.004-2.317-1.106-2.317-2.465 0-.089 0-.18.02-.265a.501.501 0 0 1 0-.092L5.77 4.216a.308.308 0 0 1 .022-.065c.238-1.054 1.101-1.817 2.121-1.876a.153.153 0 0 1 .074-.02h32.363L40.854.03H7.988c-.132 0-.264.013-.394.037-1.797.187-3.3 1.53-3.781 3.376a2.65 2.65 0 0 0-.07.265L.08 20.335c-.036.16-.055.325-.058.49a4.834 4.834 0 0 0 1.258 3.693 4.29 4.29 0 0 0 3.12 1.387h41.782l-1.342 5.878c-.02.112-.033.226-.039.34-.002.627.34 1.197.877 1.458.537.26 1.168.164 1.613-.247l7.668-7.457 23.038.02h.228c1.644-.089 3.108-1.135 3.803-2.72.115-.212.199-.44.25-.68l3.666-16.639c.094-.377.142-.766.144-1.156m2.56-2.665h.215a.43.43 0 0 0 .32-.092.308.308 0 0 0 .1-.242.28.28 0 0 0-.135-.255.609.609 0 0 0-.288-.057h-.205l-.007.646zm0 1.19h-.541V.997h.884c.22-.02.44.044.622.18.132.109.208.277.205.455a.55.55 0 0 1-.136.406.486.486 0 0 1-.374.165.583.583 0 0 1 .263.112c.074.053.13.127.163.215a.832.832 0 0 1 .052.306v.2c0 .067.012.132.035.194h-.51a1.72 1.72 0 0 1-.035-.34.767.767 0 0 0-.045-.272.301.301 0 0 0-.134-.126.91.91 0 0 0-.32-.04h-.12l-.009.775zM88.93.435a1.525 1.525 0 0 0-.66.157 1.721 1.721 0 0 0-.423.323c-.144.145-.26.318-.343.51a1.648 1.648 0 0 0-.14.68c.002.292.076.58.214.833.132.26.332.476.577.618.237.143.505.22.778.221.272 0 .54-.077.776-.22a1.5 1.5 0 0 0 .576-.62c.217-.396.27-.87.148-1.308a2.073 2.073 0 0 0-.196-.436 1.627 1.627 0 0 0-.32-.387 1.468 1.468 0 0 0-.97-.378l-.017.007zm1.913 1.67c0 .26-.046.517-.138.758a1.87 1.87 0 0 1-.378.629 2 2 0 0 1-.545.421 1.867 1.867 0 0 1-1.602.038 1.869 1.869 0 0 1-.576-.412 2.183 2.183 0 0 1-.375-.547 2.256 2.256 0 0 1-.19-.894c0-.432.13-.852.37-1.2.11-.155.24-.293.384-.412a1.86 1.86 0 0 1 .531-.289 1.8 1.8 0 0 1 1.43.089c.205.1.39.243.544.418.34.377.53.879.532 1.4h.013z"/><path d="M58.961 21.046l.445-1.972h-.05c-.69 1.234-2.215 2.492-3.567 2.492-2.487 0-3.567-1.207-3.073-3.4l2.99-13.192h4.296L57.4 16.473c-.118.745-.076 1.408.75 1.36.755-.005 1.401-.574 1.545-1.36L62.3 4.974h4.297L62.96 21.03l-3.999.017zm15.435-10.152c.214-.946.599-2.639-.641-2.639-1.163 0-1.698 1.292-2.05 2.84l-.856 3.783c-.32 1.38-.404 2.986.64 2.958 1.381 0 1.724-1.747 1.955-2.784l.952-4.158zm-1.602-5.906l-.449 1.948h.058c1.198-1.608 2.563-2.353 4.06-2.41 2.838 0 2.999 2.985 2.425 5.507l-1.256 5.563c-.618 2.72-1.948 5.855-5.108 5.967-.762.03-2.034-.456-2.675-2.04h-.058l-1.307 5.134h-4.307l4.608-19.67h4.009zm-59.131 0l-.423 1.85h.058c.89-1.291 2.243-2.133 3.739-2.326 1.397-.082 2.528.778 2.707 2.125h.055c1.112-1.435 2.4-2.125 3.617-2.125 2.029 0 3.573 1.176 3.08 3.356l-2.98 13.161h-4.297l2.599-11.468c.115-.748 0-1.384-.837-1.323-.727-.002-1.347.56-1.458 1.323l-2.601 11.468h-4.3l2.595-11.468c.022-.68 0-1.323-.727-1.323-.869 0-1.32.46-1.57 1.323l-2.6 11.468H6.028L9.661 4.974l4.002.014zm20.593 8.258c-.96.49-1.79.748-2.428 1.177a3.124 3.124 0 0 0-1.471 2.067c-.228 1.02.176 1.724 1.205 1.724 1.281 0 1.858-1.404 2.12-2.438l.574-2.53zm-1.281 6.372c-1.369 1.265-2.445 1.948-4.143 1.948-2.436 0-3.554-1.747-2.974-4.3.827-3.649 2.948-4.791 4.99-5.44 2.04-.65 3.927-.878 4.312-2.609.202-.887-.109-1.659-.961-1.659-1.567 0-1.824 1.146-2.214 2.492h-4.31c.724-4.015 3.608-5.538 7.065-5.538 4.246 0 5.473 1.38 4.678 4.906l-2.243 9.84a5.507 5.507 0 0 0-.05 1.778h-4.176l.026-1.418zm9.86-16.208l.768-3.4h4.294l-.763 3.4h-4.3zm-3.99 17.636l3.637-16.055h4.3l-3.637 16.055h-4.3zM45.41 21.046L50.156 0h4.3L49.71 21.046zM39.591 28.257l-.185.895h1.137l-.93 4.522h1.052l.929-4.522h1.134l.183-.895h-3.32zm-3.909 0l-1.108 5.44h.96l.773-3.794.529 3.794h1.208l1.096-5.44h-.962l-.775 3.72-.51-3.72h-1.21zm-2.595.939v2.438h-1.022l1.022-2.438zm-2.932 4.501h1.09l.477-1.145h1.384v1.145H34.2l-.26-5.44h-1.282l-2.502 5.44zm-2.38-5.44l.086 5.42h1.352l2.3-5.42h-1.082l-1.603 4.006h-.022l.08-4.006h-1.112zm-3.167 0l-1.108 5.44h2.98l.182-.894H24.74l.301-1.458h1.75l.182-.891h-1.746l.26-1.279h1.861l.18-.894-2.92-.024zm-1.58 5.44l.183-.894h-1.858l.926-4.546h-1.051l-1.102 5.44h2.903zm-5.305-5.44l-1.106 5.44h2.98l.183-.894h-1.923l.298-1.458h1.75l.185-.891h-1.752l.263-1.279h1.858l.18-.894-2.916-.024zm-5.162 5.44h1.047l.468-2.291h.577c.42 0 .554.255.477.68l-.18 1.02a1.004 1.004 0 0 0 0 .571h1.135v-.048c-.176-.105-.138-.4-.038-.969.227-1.142.198-1.553-.494-1.652.619-.13.99-.612 1.144-1.333.19-.928-.237-1.397-1.099-1.397H13.66l-1.1 5.42zm1.99-4.61h.493c.477 0 .682.248.58.751-.055.506-.485.869-.961.813h-.44l.327-1.564zm-6.14-.83l-1.105 5.44h2.983l.176-.894H8.542l.295-1.458h1.75l.182-.891H9.02l.267-1.279h1.842l.183-.894-2.9-.024zM4.797 31.24h.452c.46 0 .769.184.64.81a.96.96 0 0 1-.341.632.853.853 0 0 1-.665.187h-.407l.32-1.629zm.445-2.172h.381c.516 0 .721.19.612.703-.109.514-.41.714-.986.714h-.295l.288-1.417zm-1.993 4.63h1.772c1.227 0 1.775-.74 1.948-1.584.15-.724-.134-1.18-.686-1.265.532-.149.934-.612 1.029-1.186.212-1.037-.32-1.36-1.198-1.36H4.358l-1.109 5.395z"/></g></svg>