<svg xmlns="http://www.w3.org/2000/svg" width="34" height="34"><g fill="#5B6282"><path d="M15.392 19.862l-1.366-4.077 4.519-1.514 1.365 4.078z"/><path d="M15.392 19.862l-1.366-4.077 4.519-1.514 1.365 4.078z"/><path d="M31.7 12.341C28.4.694 23.6-2.059 12.6 1.435 1.6 4.93-1 10.012 2.3 21.66c3.3 11.647 8.1 14.4 19.1 10.906 11-3.494 13.6-8.577 10.3-20.224zm-5.6 7.518L24 20.6l.7 2.224c.3.952-.2 1.905-1 2.223-.2.106-.4.106-.6.106-.7 0-1.3-.53-1.5-1.165l-.7-2.223-4.3 1.482.7 2.224c.3.953-.2 1.905-1 2.223-.2.106-.4.106-.6.106-.7 0-1.3-.53-1.5-1.165l-.7-2.223-2.1.74c-.2.107-.4.107-.6.107-.7 0-1.3-.53-1.5-1.165-.3-.953.2-1.906 1-2.223l2.1-.742-1.4-4.447-2 .742c-.2.105-.4.105-.6.105-.7 0-1.3-.529-1.5-1.164-.3-.953.2-1.906 1-2.224L10 13.4l-.7-2.224c-.3-.952.1-2.011 1-2.329.9-.318 1.8.212 2.1 1.059l.7 2.223 4.3-1.482-.7-2.223c-.3-.953.2-1.906 1-2.224.9-.318 1.8.212 2.1 1.059l.7 2.33 2.1-.742c.9-.318 1.8.212 2.1 1.059.3.953-.2 1.906-1 2.223l-2.1.742 1.4 4.34 2.1-.74c.9-.318 1.8.211 2.1 1.058.2 1.06-.2 2.012-1.1 2.33z"/></g></svg>