<svg xmlns="http://www.w3.org/2000/svg" width="20" height="16"><path fill="#5B6282" d="M19.2 1.84c-.72.32-1.44.56-2.24.64.8-.48 1.44-1.28 1.76-2.16-.8.48-1.6.8-2.48.96C15.52.48 14.48 0 13.36 0 11.2 0 9.44 1.76 9.44 3.92c0 .32 0 .64.08.88C6.16 4.64 3.28 3.04 1.36.64c-.4.64-.56 1.28-.56 2C.8 4 1.52 5.2 2.56 5.92c-.64 0-1.28-.16-1.76-.48v.08c0 1.92 1.36 3.52 3.12 3.84-.32.08-.64.16-1.04.16-.24 0-.48 0-.72-.08.48 1.6 1.92 2.72 3.68 2.72C4.48 13.2 2.8 13.84.96 13.84c-.32 0-.64 0-.96-.08 1.76 1.12 3.84 1.76 6 1.76 7.28 0 11.2-6 11.2-11.2v-.48c.8-.56 1.44-1.28 2-2z"/></svg>