<svg xmlns="http://www.w3.org/2000/svg" width="47" height="34"><path fill="#5B6282" d="M19.861 4.132c1.498-1.599 3.583-2.59 5.89-2.59 3.065 0 5.74 1.75 7.164 4.35a9.701 9.701 0 0 1 4.05-.882c5.529 0 10.012 4.632 10.012 10.346S42.494 25.7 36.965 25.7c-.675 0-1.335-.069-1.973-.2-1.254 2.29-3.644 3.84-6.388 3.84a7.142 7.142 0 0 1-3.202-.756c-1.271 3.064-4.234 5.212-7.686 5.212-3.596 0-6.66-2.33-7.837-5.599a7.485 7.485 0 0 1-1.593.17c-4.28 0-7.751-3.591-7.751-8.022 0-2.97 1.559-5.562 3.876-6.95a9.376 9.376 0 0 1-.743-3.669C3.668 4.631 7.708.5 12.69.5c2.925 0 5.524 1.424 7.172 3.632zm-12.6 13.635c-.029.078.01.094.02.108.087.065.176.112.265.164.474.257.921.333 1.39.333.952 0 1.543-.52 1.543-1.355v-.016c0-.773-.667-1.053-1.294-1.256l-.081-.027c-.473-.157-.88-.293-.88-.611v-.017c0-.273.238-.473.607-.473.41 0 .897.14 1.21.317 0 0 .093.06.127-.03.018-.05.177-.487.193-.535.018-.051-.013-.09-.046-.11a2.653 2.653 0 0 0-1.365-.375h-.095c-.872 0-1.48.54-1.48 1.313v.017c0 .815.67 1.08 1.3 1.264l.101.031c.459.145.854.269.854.6v.016c0 .302-.257.527-.671.527-.16 0-.674-.003-1.227-.362-.067-.04-.106-.07-.158-.1-.027-.019-.095-.049-.125.043l-.188.534zm13.947 0c-.03.078.01.094.02.108.087.065.176.112.265.164.474.257.92.333 1.389.333.952 0 1.544-.52 1.544-1.355v-.016c0-.773-.668-1.053-1.294-1.256l-.082-.027c-.472-.157-.88-.293-.88-.611v-.017c0-.273.239-.473.608-.473.41 0 .897.14 1.21.317 0 0 .092.06.126-.03l.194-.535c.018-.051-.014-.09-.046-.11a2.653 2.653 0 0 0-1.365-.375h-.095c-.872 0-1.481.54-1.481 1.313v.017c0 .815.671 1.08 1.3 1.264l.102.031c.458.145.854.269.854.6v.016c0 .302-.257.527-.672.527-.16 0-.673-.003-1.227-.362-.067-.04-.106-.068-.157-.1-.017-.012-.097-.044-.125.043l-.188.534zm10.316-2.512c-.078-.27-.2-.509-.362-.708-.162-.199-.367-.359-.61-.475a1.968 1.968 0 0 0-.853-.175c-.322 0-.61.059-.852.175a1.763 1.763 0 0 0-.612.475 2.01 2.01 0 0 0-.362.708 3.167 3.167 0 0 0-.116.875c0 .313.039.608.116.876.08.27.2.508.363.707.162.2.368.359.61.472.244.113.53.17.853.17.323 0 .609-.057.852-.17.243-.113.449-.272.611-.472.162-.198.284-.437.362-.707.078-.269.117-.564.117-.876 0-.311-.039-.606-.117-.875zm-.795.875c0 .473-.086.845-.256 1.108-.167.26-.42.387-.774.387-.354 0-.606-.126-.77-.387-.167-.262-.252-.635-.252-1.108 0-.471.085-.843.252-1.103.164-.257.416-.383.77-.383.354 0 .607.126.775.383.169.26.255.632.255 1.103zm7.325 1.369c-.026-.08-.101-.05-.101-.05a1.793 1.793 0 0 1-.37.109c-.133.02-.28.031-.436.031-.385 0-.69-.117-.91-.349-.22-.231-.342-.606-.34-1.113 0-.461.109-.808.304-1.073.194-.263.489-.398.883-.398.328 0 .578.04.84.124 0 0 .063.028.092-.056.07-.198.121-.34.196-.557.02-.062-.03-.089-.05-.096a3.041 3.041 0 0 0-.53-.137 3.887 3.887 0 0 0-.597-.041c-.334 0-.631.058-.886.175-.254.115-.47.275-.64.475-.171.199-.301.437-.388.707a2.88 2.88 0 0 0-.13.877c0 .676.179 1.222.53 1.622.352.4.88.605 1.57.605.407 0 .826-.085 1.126-.206 0 0 .057-.029.032-.097l-.195-.552zm4.069-2.398a1.724 1.724 0 0 0-.345-.645 1.586 1.586 0 0 0-.51-.399 1.929 1.929 0 0 0-.772-.16c-.336 0-.641.058-.888.177-.249.12-.457.282-.62.485a2.004 2.004 0 0 0-.365.715 3.165 3.165 0 0 0-.118.88c0 .318.04.614.122.88.082.269.213.506.39.701.177.198.405.352.677.46.27.107.6.162.977.162.778-.003 1.187-.18 1.356-.276.03-.017.058-.047.022-.132l-.176-.505c-.026-.075-.1-.047-.1-.047-.193.073-.467.204-1.106.203-.417 0-.727-.127-.92-.324-.2-.202-.297-.499-.314-.918l2.692.003s.07-.001.078-.072c.003-.03.092-.566-.08-1.188zm-2.678.577c.038-.262.109-.48.218-.65.165-.259.416-.4.77-.4.353 0 .586.142.754.4.11.17.16.397.178.65h-1.92zm-18.881-.577a1.724 1.724 0 0 0-.344-.645 1.586 1.586 0 0 0-.511-.399 1.929 1.929 0 0 0-.771-.16c-.336 0-.641.058-.889.177-.248.12-.456.282-.62.485a2.004 2.004 0 0 0-.364.715 3.19 3.19 0 0 0-.119.88c0 .318.041.614.123.88.082.269.213.506.39.701.177.198.404.352.677.46.27.107.6.162.977.162.777-.003 1.187-.18 1.355-.276.03-.017.059-.047.023-.132l-.175-.505c-.027-.075-.102-.047-.102-.047-.193.073-.466.204-1.106.203-.416 0-.726-.127-.92-.324-.2-.202-.296-.499-.314-.918l2.692.003s.071-.001.078-.072c.003-.03.093-.566-.08-1.188zm-2.677.577c.038-.262.109-.48.218-.65.164-.259.416-.4.77-.4.352 0 .586.142.754.4.11.17.159.397.178.65h-1.92zm-4.747-.132a5.839 5.839 0 0 0-.42-.013c-.231 0-.454.03-.663.088-.21.057-.4.147-.563.267a1.32 1.32 0 0 0-.39.454 1.356 1.356 0 0 0-.144.636c0 .244.041.456.123.63.082.174.2.319.352.43.15.112.334.194.548.244.211.05.45.074.713.074.276 0 .55-.023.817-.07.264-.046.588-.113.678-.134.09-.021.189-.05.189-.05.067-.016.062-.09.062-.09l-.002-2.52c0-.554-.144-.964-.428-1.218-.282-.253-.698-.381-1.236-.381-.202 0-.527.028-.721.068 0 0-.589.117-.83.31 0 0-.054.034-.025.11l.191.525c.024.067.088.044.088.044s.02-.008.044-.022c.518-.289 1.173-.28 1.173-.28.291 0 .515.06.666.178.147.116.221.29.221.657v.117c-.231-.034-.443-.054-.443-.054zm-1.072 1.937a.553.553 0 0 1-.155-.163.68.68 0 0 1-.08-.358c0-.243.078-.417.24-.534-.002 0 .232-.207.78-.2.386.006.731.064.731.064v1.254s-.341.075-.726.099c-.548.034-.792-.162-.79-.162zm22.783-3.358c.02-.062-.022-.092-.04-.099a2.285 2.285 0 0 0-.451-.079c-.339-.02-.526.037-.694.115-.167.077-.352.202-.456.343v-.335c0-.047-.032-.084-.077-.084h-.69c-.045 0-.077.037-.077.084v4.112c0 .046.037.084.082.084h.707a.083.083 0 0 0 .081-.084v-2.054c0-.276.03-.551.09-.724.058-.17.137-.308.235-.406a.823.823 0 0 1 .333-.205 1.269 1.269 0 0 1 .657-.014c.051.006.08-.027.098-.075.046-.126.177-.503.202-.579zm-6.638-1.906a2.058 2.058 0 0 0-.632-.094c-.487 0-.87.142-1.14.42-.268.276-.45.697-.541 1.25l-.033.187h-.611s-.075-.003-.09.08l-.1.574c-.008.054.016.088.087.088h.595l-.604 3.451a4.356 4.356 0 0 1-.161.68c-.059.17-.116.299-.188.392a.502.502 0 0 1-.246.195.98.98 0 0 1-.317.046c-.065 0-.151-.01-.216-.024a.627.627 0 0 1-.145-.048s-.07-.027-.097.044l-.2.56c-.019.055.008.098.041.11a1.595 1.595 0 0 0 .64.112c.248 0 .475-.035.662-.104.188-.07.352-.192.497-.356a1.83 1.83 0 0 0 .35-.617c.093-.25.173-.562.236-.926l.607-3.515h.887s.074.003.09-.08l.1-.573c.007-.055-.016-.09-.088-.09h-.86c.004-.019.043-.33.142-.621a.815.815 0 0 1 .188-.294.563.563 0 0 1 .226-.144.916.916 0 0 1 .289-.042c.08 0 .16.01.22.022.084.019.117.028.139.035.088.027.1 0 .117-.043l.205-.579c.022-.062-.03-.088-.05-.096zm-12.026 5.964v-5.885c0-.046-.032-.084-.077-.084h-.714c-.045 0-.077.038-.077.084v5.885c0 .046.032.083.077.083h.714c.045 0 .077-.037.077-.083z"/></svg>