<svg xmlns="http://www.w3.org/2000/svg" width="40" height="33"><path fill="#5B6282" d="M39.285 4.239a16.323 16.323 0 0 1-4.633 1.279 8.172 8.172 0 0 0 3.547-4.493 16.606 16.606 0 0 1-5.128 1.953A8.013 8.013 0 0 0 27.18.406c-4.456 0-8.068 3.635-8.068 8.113 0 .643.073 1.262.208 1.855-6.708-.319-12.653-3.56-16.631-8.458a7.993 7.993 0 0 0-1.093 4.083 8.132 8.132 0 0 0 3.589 6.759 8.006 8.006 0 0 1-3.654-1.017v.101c0 3.935 2.776 7.217 6.471 7.965a8.147 8.147 0 0 1-3.627.14c1.034 3.222 4.01 5.572 7.55 5.638A16.121 16.121 0 0 1 1.92 29.058c-.64 0-1.278-.038-1.919-.11 3.59 2.3 7.82 3.644 12.393 3.644 14.849 0 22.959-12.368 22.959-23.076 0-.345 0-.693-.025-1.04a16.35 16.35 0 0 0 4.035-4.204l-.077-.033z"/></svg>