<svg fill="none" height="48" viewBox="0 0 49 48" width="49" xmlns="http://www.w3.org/2000/svg" xmlns:xlink="http://www.w3.org/1999/xlink"><clipPath id="a"><path d="m.852905 0h48v48h-48z"/></clipPath><g clip-path="url(#a)"><path d="m48.8069 22.5939c-.0137-.1503-.0217-.3011-.0239-.452v-.012l-.034-.452v-.012c-.1227-1.345-.3596-2.6771-.708-3.982 0-.012 0-.012-.0121-.024l-.104-.384c-.0119-.022-.0119-.046-.0239-.058-.036-.116-.07-.244-.104-.36-.012-.022-.012-.058-.0241-.08l-.1039-.338-.0361-.092c-.0334-.1144-.0721-.2272-.1159-.338l-.034-.104-.116-.324c-.01-.0321-.022-.0635-.036-.094-.046-.104-.08-.22-.126-.324-.012-.024-.024-.06-.036-.082-.046-.116-.092-.22-.1401-.336 0-.012-.0099-.024-.0099-.036-.1508-.3725-.3136-.74-.488-1.102l-.0361-.07c-.0459-.094-.0799-.174-.126-.256-.0239-.046-.0479-.104-.0699-.15-.036-.082-.082-.152-.116-.234-.036-.058-.06-.116-.094-.174-.034-.068-.08-.14-.1161-.22l-.104-.186c-.0359-.07-.0799-.14-.1159-.208-.0343-.0685-.0731-.1346-.116-.198-.036-.07-.08-.128-.116-.198s-.0821-.128-.1161-.196l-.1159-.186c-.048-.07-.082-.14-.1281-.21-.0359-.058-.0699-.116-.1159-.174-.0854-.128-.1707-.256-.256-.384l-.152-.22c-.034-.046-.068-.104-.104-.15l-.174-.24399-.092-.128c-.094-.128-.174-.244-.268-.36-.6963-.91248-1.4569-1.77401-2.2761-2.578-.5553-.57698-1.1486-1.11619-1.7759-1.614-.3873-.33637-.7905-.65406-1.208-.952-.7484-.55766-1.5448-1.0476-2.38-1.464-1.912-1.01433-3.9497-1.77155-6.06-2.252002-.188-.034-.374-.08-.548-.116h-.012c-.0921-.012-.174-.036-.266-.046-1.208-.22-2.44-.3599998-3.68-.3839998h-1.0241c-1.5079.024-2.9959.1859998-4.4.4879998-3.252.684002-6.12 2.056002-8.024 3.774002-.104.092-.186.162-.232.208l-.046.048h.01l-.01.01.01-.01s.012 0 .012-.012l-.012.012s.012-.012.024-.012c1.416-.848 3.38-1.544 4.784-1.894.186-.046.384-.092.57-.14.034-.01.0801-.01.116-.02.1621-.036.324-.072.5-.106.022 0 .056-.012.08-.012 6.212-1.138 12.8321.72 17.4401 5.12.995.94573 1.869 2.01119 2.602 3.17199 2.938 4.76 2.66 10.752.372 14.28-3.332 5.134-10.7761 6.9-15.3861 2.406-1.5487-1.5019-2.4385-3.5569-2.474-5.714-.0164-1.0305.1896-2.0524.604-2.996.164-.372 1.266-2.484 1.766-2.38-1.2659-.268-3.636.256-5.296 2.728-1.486 2.22-1.404 5.632-.488 8.06-.5851-1.1976-.9805-2.4789-1.172-3.798-1.184-7.988 4.192-14.80399 9.1261-16.49999-2.6601-2.322-9.3361-2.16-14.2941 1.486-2.88995 2.12599-4.95795 5.14599-6.04995 8.74599.164-2.02.93-5.04 2.498-8.11599-1.66.86-3.774 3.57599-4.82 6.08399-1.51 3.62-2.032003 7.952-1.556 12.074l.104.93c1.928 11.332 11.80995 19.972 23.68995 19.972 13.2721 0 24.0361-10.764 24.0361-24.036-.012-.442-.024-.884-.0461-1.314z" fill="#e6f2f1"/></g></svg>