<svg fill="none" height="48" viewBox="0 0 49 48" width="49" xmlns="http://www.w3.org/2000/svg" xmlns:xlink="http://www.w3.org/1999/xlink"><clipPath id="a"><path d="m.852905 0h48v48h-48z"/></clipPath><g clip-path="url(#a)"><path d="m24.8529.593994c-13.26 0-23.999995 10.746006-23.999995 24.000006 0 10.606 6.875995 19.6 16.409995 22.77 1.2.226 1.64-.516 1.64-1.154 0-.57-.02-2.08-.03-4.08-6.676 1.448-8.084-3.22-8.084-3.22-1.09199-2.77-2.66999-3.51-2.66999-3.51-2.174-1.488.168-1.458.168-1.458 2.40999.168 3.67599 2.472 3.67599 2.472 2.14 3.67 5.618 2.61 6.99 1.996.216-1.552.834-2.61 1.52-3.21-5.33-.6-10.932-2.664-10.932-11.86 0-2.62.93-4.76 2.47-6.44-.27-.606-1.08-3.046.21-6.352 0 0 2.01-.644 6.6 2.46 1.92-.534 3.96-.798 6-.81 2.04.012 4.08.276 6 .81 4.56-3.104 6.57-2.46 6.57-2.46 1.29 3.306.48 5.746.24 6.352 1.53 1.68 2.46 3.82 2.46 6.44 0 9.22-5.61 11.25-10.95 11.84.84.72 1.62 2.192 1.62 4.44 0 3.212-.03 5.792-.03 6.572 0 .63.42 1.38 1.65 1.14 9.602-3.148 16.472-12.148 16.472-22.738 0-13.254-10.746-24.000006-24-24.000006z" fill="#e6f2f1"/></g></svg>