<svg fill="none" height="48" viewBox="0 0 128 48" width="128" xmlns="http://www.w3.org/2000/svg" xmlns:xlink="http://www.w3.org/1999/xlink"><clipPath id="a"><path d="m0 0h127.5v48h-127.5z"/></clipPath><g clip-path="url(#a)" fill="#e6f2f1"><path d="m120.614 6.67457c.025-3.56188-2.606-6.496942-5.935-6.6197658-.087-.0051894-.174-.0051894-.261 0h-34.4345l-.695 3.1115258h35.2055c1.777.03389 3.201 1.58118 3.206 3.48-.004.2999-.044.5982-.121.888l-5.136 23.51997c-.018.059-.048.1131-.09.1581-.483 1.3172-1.667 2.1883-2.99 2.2024h-33.5184c-.2922.004-.5731.1149-.7902.312l-8.3225 8.3576 1.6925-7.0856c.028-.1045.0448-.2118.049-.3205.0176-.3258-.0932-.6454-.3082-.8894-.1026-.1165-.2286-.2096-.3697-.2731-.1411-.0636-.294-.0961-.4485-.0954h-61.17344c-1.7934-.0056-3.24634-1.5614-3.24634-3.48 0-.1256 0-.2541.02802-.3741-.00395-.0432-.00395-.0866 0-.1299l5.12942-23.48183c.00685-.03165.01719-.06243.03083-.09177.33346-1.488 1.54261-2.56517 2.97171-2.64847.0316-.01812.0673-.02784.1037-.02823h45.3438l.7061-3.1411781h-46.0485c-.1849 0-.3699.0183529-.552.0522353-2.51781.2639998-4.62366 2.1600028-5.29759 4.7661128-.03907.12292-.07181.24779-.09807.37412l-5.13223 23.47341c-.0504395.2259-.0770604.4588-.0812637.6918-.0818358.9447.0326351 1.8962.3361117 2.7939.303476.8977.789292 1.7218 1.426472 2.4197.55681.6105 1.23211 1.0993 1.98405 1.4362.75194.3368 1.56451.5144 2.38738.5219h58.54074l-1.8803 8.2984c-.028.1581-.0462.319-.0546.48-.0028.8852.4763 1.6899 1.2287 2.0583.7524.3671 1.6365.2316 2.26-.3487l10.7436-10.5275 32.2787.0282h.319c2.304-.1256 4.355-1.6023 5.329-3.84.161-.2993.278-.6211.35-.96l5.136-23.49031c.132-.53224.199-1.08142.202-1.632zm3.591-3.79624h.301c.08.00947.16.00287.237-.01944.077-.0223.149-.05984.212-.11044.046-.04308.083-.09602.107-.15507.025-.05905.036-.12275.033-.18658.004-.07165-.012-.14301-.045-.20643-.034-.06343-.084-.11651-.145-.15357-.125-.05957-.264-.0872-.403-.08047h-.287zm0 1.68h-.758v-3.14823h1.239c.308-.02824.616.06212.871.25412.185.15388.291.39105.287.64235.008.10352-.005.20759-.037.30604-.033.09845-.085.18929-.153.26714-.066.07484-.146.13445-.237.17468-.09.04023-.188.06011-.287.05826.134.02107.26.07541.368.15811.104.07483.182.1793.229.30353.05.13812.075.28467.072.432v.28236c0 .09458.017.18635.049.27388h-.714c-.032-.15796-.049-.31876-.049-.48.002-.13079-.019-.26089-.063-.384-.043-.07758-.108-.13978-.188-.17788-.145-.04557-.297-.0647-.448-.05647h-.168zm.395-3.941643c-.321.002984-.637.07874-.925.221647-.22.120114-.419.273956-.592.455996-.202.20471-.365.44894-.481.72-.132.30234-.199.6296-.196.96.003.41224.106.81883.3 1.176.185.36706.465.672.808.87247.332.20189.708.31059 1.09.312.381 0 .757-.1087 1.088-.31058.346-.20767.626-.51153.807-.8753.304-.55906.378-1.22823.207-1.84659-.068-.21516-.16-.42171-.275-.61553-.12-.2044-.271-.38871-.448-.54635-.373-.339199-.857-.529027-1.359-.533646zm2.68 2.357643c0 .36706-.064.72989-.193 1.07012-.117.32834-.297.63015-.53.888-.218.24112-.476.44221-.763.59435-.347.17627-.728.27253-1.116.28181-.389.00928-.774-.06866-1.129-.22816-.303-.14029-.577-.33771-.807-.58165-.213-.22894-.39-.48936-.525-.77223-.173-.398-.264-.82752-.266-1.26212 0-.60988.182-1.20282.518-1.69412.154-.21882.336-.413643.538-.581643.224-.175971.476-.313792.744-.408.325-.118382.67-.168313 1.015-.1467.344.021613.681.11431.989.272347.287.141176.546.343058.762.590117.476.532239.742 1.240939.745 1.976469h.018z"/><path d="m82.6101 29.712.6235-2.784h-.07c-.9668 1.7421-3.1035 3.5181-4.9978 3.5181-3.4845 0-4.9977-1.704-4.3055-4.8l4.1893-18.62398h6.0191l-3.6457 16.23388c-.1653 1.0518-.1065 1.9878 1.0508 1.92 1.0579-.0071 1.963-.8104 2.1647-1.92l3.6499-16.23388h6.0205l-5.0958 22.66728-5.603.024zm21.6259-14.3322c.3-1.3356.839-3.7257-.898-3.7257-1.629 0-2.379 1.824-2.872 4.0094l-1.1996 5.3407c-.4484 1.9483-.5661 4.2156.8966 4.176 1.935 0 2.416-2.4663 2.739-3.9303zm-2.244-8.33792-.63 2.75012h.082c1.678-2.27012 3.591-3.32188 5.688-3.40235 3.976 0 4.202 4.21415 3.398 7.77455l-1.76 7.8537c-.866 3.84-2.729 8.2659-7.157 8.424-1.067.0423-2.8496-.6438-3.7477-2.88h-.0813l-1.8312 7.248h-6.0345l6.4562-27.76943h5.6175zm-82.8488 0-.5927 2.61177h.0813c1.2469-1.82259 3.1426-3.0113 5.2387-3.28377 1.9573-.11576 3.5419 1.09836 3.7927 3h.0771c1.558-2.02588 3.3626-3 5.0678-3 2.8428 0 5.0061 1.66024 4.3154 4.73792l-4.1753 18.5802h-6.0205l3.6414-16.1901c.1612-1.056 0-1.9539-1.1727-1.8678-1.0186-.0028-1.8873.7906-2.0428 1.8678l-3.6443 16.1901h-6.0247l3.6359-16.1901c.0308-.96 0-1.8678-1.0186-1.8678-1.2176 0-1.8495.6494-2.1998 1.8678l-3.6428 16.1901h-6.01352l5.09022-22.66588zm28.8528 11.65832c-1.3451.6918-2.508 1.056-3.4019 1.6617-.527.3141-.9827.7361-1.3377 1.2387-.355.5027-.6014 1.0748-.7233 1.6794-.3194 1.44.2466 2.4339 1.6883 2.4339 1.7948 0 2.6033-1.9821 2.9704-3.4419zm-1.7948 8.9958c-1.9181 1.7859-3.4257 2.7501-5.8048 2.7501-3.413 0-4.9795-2.4663-4.1668-6.0706 1.1587-5.1515 4.1304-6.7637 6.9914-7.68 2.8583-.9176 5.5022-1.2395 6.0416-3.6833.283-1.2522-.1527-2.3421-1.3465-2.3421-2.1955 0-2.5556 1.6179-3.102 3.5181h-6.0387c1.0144-5.6682 5.0551-7.81832 9.8987-7.81832 5.9491 0 7.6682 1.94824 6.5544 6.92612l-3.1427 13.8918c-.1582.8273-.1819 1.6751-.0701 2.5101h-5.8509zm13.8148-22.88188 1.0761-4.8000024h6.0163l-1.0691 4.8000024h-6.0247zm-5.5904 24.89788 5.0958-22.66588h6.0248l-5.0958 22.66588zm9.1982 0 6.6497-29.712h6.0247l-6.6496 29.712zm-8.153 10.1802-.2592 1.2636h1.5931l-1.303 6.384h1.4739l1.3017-6.384h1.5888l.2564-1.2636zm-5.4768 0-1.5525 7.68h1.3451l1.083-5.3562.7412 5.3562h1.6925l1.5357-7.68h-1.3479l-1.0859 5.2518-.7145-5.2518h-1.6953zm-3.6359 1.3257v3.4419h-1.4319zm-4.108 6.3543h1.5272l.6683-1.6164h1.9391v1.6164h1.5328l-.3643-7.68h-1.7962l-3.5055 7.68zm-3.3346-7.68.1205 7.6518h1.8942l3.2226-7.6518h-1.516l-2.246 5.6556h-.0308l.1121-5.6556h-1.558zm-4.4373 0-1.5524 7.68h4.1752l.255-1.2621h-2.6929l.4218-2.0583h2.4519l.255-1.2579h-2.4463l.3643-1.8057h2.6074l.2522-1.2621zm-2.2137 7.68.2564-1.2621h-2.6033l1.2974-6.4179h-1.4725l-1.544 7.68h4.0674zm-7.4329-7.68-1.5496 7.68h4.1753l.2564-1.2621h-2.6943l.4175-2.0583h2.4519l.2592-1.2579h-2.4547l.3685-1.8057h2.6032l.2522-1.2621zm-7.2324 7.68h1.4669l.6557-3.2343h.8085c.5884 0 .7762.36.6683.96l-.2522 1.44c-.0775.263-.0775.5431 0 .8061h1.5902v-.0678c-.2466-.1482-.1933-.5647-.0532-1.368.318-1.6122.2774-2.1924-.6922-2.3322.8673-.1835 1.3871-.864 1.6029-1.8819.2662-1.3101-.3321-1.9722-1.5398-1.9722h-2.7153l-1.5412 7.6518zm2.7881-6.5082h.6908c.6683 0 .9555.3501.8126 1.0602-.077.7144-.6795 1.2269-1.3464 1.1478h-.6165l.4581-2.208zm-8.6027-1.1718-1.5482 7.68h4.1795l.2466-1.2621h-2.6944l.4134-2.0583h2.4519l.255-1.2579h-2.4505l.3741-1.8057h2.5808l.2564-1.2621-4.0632-.0339zm-5.06358 4.2113h.6333c.64451 0 1.07745.2598.8967 1.1436-.0387.3485-.20995.6683-.47777.8922-.12845.107-.2777.1858-.43816.2313s-.32858.0566-.49357.0327h-.57025l.44835-2.2998zm.62349-3.0663h.53382c.72297 0 1.01019.2682.85747.9925-.15272.7256-.57445 1.008-1.38148 1.008h-.41332zm-2.79239 6.5365h2.48275c1.71915 0 2.48695-1.0448 2.72934-2.2363.21017-1.0221-.18775-1.6659-.96115-1.7859.74538-.2103 1.30864-.864 1.44174-1.6743.297-1.464-.44836-1.92-1.67853-1.92h-2.46033z"/></g></svg>