<svg fill="none" height="48" viewBox="0 0 124 48" width="124" xmlns="http://www.w3.org/2000/svg" xmlns:xlink="http://www.w3.org/1999/xlink"><clipPath id="a"><path d="m.852905 0h123v48h-123z"/></clipPath><g clip-path="url(#a)"><path clip-rule="evenodd" d="m77.3227 14.5495h-7.1425l-.328 2.2733c-1.4411 10.0676-7.7974 24.8119-15.5299 24.8119-1.2357 0-1.1804-.3839-1.0514-1.2791l.003-.0202 3.1996-22.8927v-.0002l.0431-.307.3615-2.586h-6.8805l-.1017.7067c-1.3381 5.0466-3.8507 8.4266-7.3015 10.0102.3276-1.9484.5239-4.0269.5239-6.1702 0-11.49671-4.98-19.0962-13.6296-19.0962-7.7325 0-11.8607 6.04076-11.8607 14.4846 0 10.3273 6.1598 16.8226 14.7437 18.4468-3.0142 5.2607-7.8631 8.3137-13.2365 8.3137-6.8148 0-10.81205-4.7414-10.81205-13.4454 0-7.0797 2.48985-13.445 7.40465-17.5371l-4.4561-5.45584c-7.0114 5.97534-10.418795 13.96454-10.418795 22.79804 0 12.5359 6.683975 20.3952 18.020095 20.3952 9.8292 0 17.5616-5.9756 21.4934-14.9389 2.8163-.4722 5.271-1.4528 7.3754-2.818l-1.2172 8.4688c-.0176.1282-.0356.2581-.054.3896v.0002c-.5298 3.8013-1.2404 8.8983 6.8033 8.8983 17.5618 0 22.9349-24.4871 23.7869-31.3721zm39.6433-10.13265h6.684l-3.8 26.69555c-1.376 9.4829-1.442 12.6656-.722 15.9132h-6.683c-.525-3.1827-.59-6.3651.786-16.0431zm-33.091 28.44915c0 5.7809 2.7521 8.7687 7.0114 8.7687 5.8321 0 9.9606-5.9755 9.9606-12.8606 0-5.3911-2.6213-8.8335-6.7498-8.8335-5.5699 0-10.2222 5.521-10.2222 12.9254zm18.675-18.3164h6.946l-3.145 22.6035c-.524 3.8324-.197 7.4694.721 9.8725h-6.946c-.3282-1.5586-.5243-2.8579-.5896-4.0269-2.4898 3.3127-5.8974 5.0011-9.9605 5.0011-7.5355 0-12.7123-5.7805-12.7123-14.809 0-10.9121 7.4701-19.6157 16.2509-19.6157 3.9321 0 6.9455 1.7536 8.8465 4.6766zm-77.4518-.7796c0 6.2355 3.5385 11.4317 9.8292 12.4709.4588-2.0786.7209-4.3517.7209-6.8201 0-7.7292-2.6211-12.53573-6.2251-12.53573-2.6211 0-4.325 2.59812-4.325 6.88493z" fill="#e6f2f1" fill-rule="evenodd"/></g></svg>