<svg fill="none" height="48" viewBox="0 0 67 48" width="67" xmlns="http://www.w3.org/2000/svg" xmlns:xlink="http://www.w3.org/1999/xlink"><clipPath id="a"><path d="m.5 0h66.3529v48h-66.3529z"/></clipPath><g clip-path="url(#a)"><path d="m28.5391 5.83334c2.1148-2.25741 5.0583-3.65647 8.3153-3.65647 4.327 0 8.1035 2.47059 10.1139 6.14118 1.7939-.82213 3.7443-1.24688 5.7176-1.24518 7.8057 0 14.1346 6.53933 14.1346 14.60613s-6.3289 14.6033-14.1346 14.6033c-.9529 0-1.8847-.0974-2.7854-.2824-1.7704 3.233-5.1445 5.4212-9.0184 5.4212-1.5693.0009-3.1172-.3646-4.5204-1.0673-1.7944 4.3257-5.9774 7.3581-10.8509 7.3581-5.0767 0-9.4023-3.2894-11.064-7.9044-.7389.1602-1.4928.2406-2.2489.24-6.04235 0-10.94259-5.0697-10.94259-11.3252 0-4.193 2.20094-7.8523 5.472-9.8118-.69428-1.6385-1.05103-3.4002-1.04894-5.1797 0-7.19299 5.70353-13.024989 12.73693-13.024989 4.1294 0 7.7986 2.010349 10.1252 5.127529zm-17.7883 19.24946c-.0409.1101.0142.1327.0283.1524.1228.0918.2484.1581.3741.2316.6692.3628 1.3002.4701 1.9623.4701 1.344 0 2.1784-.7341 2.1784-1.913v-.0226c0-1.0913-.9416-1.4865-1.8268-1.7731l-.1144-.0382c-.6677-.2216-1.2423-.4136-1.2423-.8625v-.024c0-.3855.336-.6678.8569-.6678.5788 0 1.2664.1976 1.7082.4475 0 0 .1313.0847.1793-.0423.0255-.0706.2499-.6876.2725-.7553.0254-.072-.0183-.1271-.0649-.1553-.5826-.3478-1.2486-.5308-1.9271-.5294h-.1341c-1.2311 0-2.0894.7623-2.0894 1.8536v.024c0 1.1506.9459 1.5247 1.8353 1.7845l.1426.0438c.648.2047 1.2056.3797 1.2056.847v.0226c0 .4264-.3628.744-.9473.744-.2259 0-.9515-.0042-1.7322-.5111-.0946-.0564-.1497-.0988-.2231-.1411-.0381-.0269-.1341-.0692-.1764.0607zm19.6899 0c-.0423.1101.0141.1327.0283.1524.1228.0918.2484.1581.3741.2316.6692.3628 1.2988.4701 1.9609.4701 1.344 0 2.1798-.7341 2.1798-1.913v-.0226c0-1.0913-.9431-1.4865-1.8268-1.7731l-.1158-.0382c-.6664-.2216-1.2424-.4136-1.2424-.8625v-.024c0-.3855.3375-.6678.8584-.6678.5788 0 1.2664.1976 1.7082.4475 0 0 .1299.0847.1779-.0423l.2739-.7553c.0254-.072-.0198-.1271-.0649-.1553-.5826-.3478-1.2487-.5308-1.9271-.5294h-.1341c-1.2311 0-2.0908.7623-2.0908 1.8536v.024c0 1.1506.9473 1.5247 1.8353 1.7845l.144.0438c.6465.2047 1.2056.3797 1.2056.847v.0226c0 .4264-.3628.744-.9487.744-.2259 0-.9501-.0042-1.7322-.5111-.0946-.0564-.1497-.096-.2217-.1411-.024-.017-.1369-.0622-.1765.0607zm14.5638-3.5464c-.1101-.3812-.2824-.7186-.5111-.9995-.2287-.281-.5181-.5069-.8611-.6706-.378-.1713-.7895-.2557-1.2043-.2471-.4546 0-.8612.0833-1.2028.2471-.3342.1567-.6293.3857-.864.6706-.2352.2958-.409.6356-.5111.9995-.1119.4021-.1671.8179-.1637 1.2353 0 .4419.055.8583.1637 1.2367.113.3812.2824.7172.5125.9981.2287.2824.5195.5068.8612.6664.3445.1595.7482.24 1.2042.24s.8598-.0805 1.2028-.24c.3431-.1596.6339-.384.8626-.6664.2287-.2795.401-.6169.5111-.9981.1101-.3798.1652-.7962.1652-1.2367 0-.4391-.0551-.8555-.1652-1.2353zm-1.1224 1.2353c0 .6678-.1214 1.1929-.3614 1.5642-.2357.3671-.5929.5464-1.0927.5464-.4997 0-.8555-.1779-1.087-.5464-.2358-.3699-.3558-.8964-.3558-1.5642 0-.6649.12-1.1901.3558-1.5572.2315-.3628.5873-.5407 1.087-.5407.4998 0 .857.1779 1.0941.5407.2386.3671.36.8923.36 1.5572zm10.3412 1.9327c-.0367-.1129-.1426-.0706-.1426-.0706-.168.0699-.3432.1215-.5223.1539-.1878.0282-.3953.0438-.6156.0438-.5435 0-.9741-.1652-1.2847-.4927-.3105-.3262-.4828-.8556-.48-1.5713 0-.6509.1539-1.1407.4292-1.5149.2739-.3713.6904-.5618 1.2466-.5618.4631 0 .816.0564 1.1859.175 0 0 .0889.0395.1299-.079.0988-.2796.1708-.48.2767-.7864.0282-.0875-.0424-.1256-.0706-.1355-.2431-.0869-.4935-.1516-.7482-.1934-.2791-.041-.5609-.0603-.8429-.0579-.4715 0-.8908.0819-1.2508.247-.3586.1624-.6635.3883-.9035.6706-.2414.281-.425.617-.5478.9981-.1247.4008-.1866.8185-.1835 1.2382 0 .9543.2527 1.7251.7482 2.2898.497.5647 1.2424.8542 2.2165.8542.5746 0 1.1661-.12 1.5896-.2909 0 0 .0805-.0409.0452-.1369zm5.7445-3.3854c-.0954-.3349-.2615-.6454-.4871-.9106-.1987-.2353-.4438-.427-.72-.5633-.3438-.1495-.7149-.2264-1.0899-.2259-.4743 0-.9049.0819-1.2536.2499-.3515.1694-.6452.3981-.8753.6847-.2381.2983-.4134.6416-.5153 1.0094-.1136.4043-.1697.8225-.1666 1.2424 0 .4489.0565.8668.1723 1.2423.1157.3798.3007.7144.5505.9897.2499.2795.5718.4969.9558.6494.3812.151.8471.2287 1.3793.2287 1.0984-.0042 1.6758-.2541 1.9144-.3897.0423-.024.0818-.0663.031-.1863l-.2484-.7129c-.0368-.1059-.1412-.0664-.1412-.0664-.2725.1031-.6593.288-1.5614.2866-.5887 0-1.0264-.1793-1.2989-.4574-.2823-.2852-.4193-.7045-.4433-1.296l3.8005.0042s.0988-.0014.1101-.1016c.0043-.0424.1299-.7991-.1129-1.6772zm-3.7807.8146c.0536-.3699.1539-.6777.3077-.9177.233-.3656.5873-.5647 1.0871-.5647.4984 0 .8273.2005 1.0645.5647.1553.24.2259.5605.2513.9177zm-26.6556-.8146c-.0949-.3348-.2605-.6453-.4856-.9106-.1991-.2354-.4447-.4272-.7214-.5633-.3434-.1493-.714-.2262-1.0885-.2259-.4743 0-.9049.0819-1.255.2499-.3502.1694-.6438.3981-.8753.6847-.2376.2984-.4124.6418-.5139 1.0094-.1137.4043-.1702.8225-.168 1.2424 0 .4489.0579.8668.1736 1.2423.1158.3798.3007.7144.5506.9897.2499.2795.5704.4969.9558.6494.3812.151.847.2287 1.3793.2287 1.0969-.0042 1.6757-.2541 1.9129-.3897.0424-.024.0833-.0663.0325-.1863l-.2471-.7129c-.0381-.1059-.144-.0664-.144-.0664-.2724.1031-.6578.288-1.5614.2866-.5873 0-1.0249-.1793-1.2988-.4574-.2824-.2852-.4179-.7045-.4433-1.296l3.8005.0042s.1002-.0014.1101-.1016c.0042-.0424.1313-.7991-.113-1.6772zm-3.7792.8146c.0536-.3699.1538-.6777.3077-.9177.2315-.3656.5873-.5647 1.0871-.5647.4969 0 .8273.2005 1.0644.5647.1553.24.2245.5605.2513.9177zm-6.7017-.1864c-.1974-.0132-.3951-.0193-.5929-.0183-.3262 0-.641.0423-.936.1242-.2965.0805-.5647.2075-.7949.3769-.2301.1687-.4185.388-.5505.641-.1398.2783-.2096.5865-.2033.8979 0 .3444.0578.6437.1736.8894.1158.2456.2824.4503.4969.607.2118.1582.4716.2739.7737.3445.2979.0706.6353.1045 1.0066.1045.3896 0 .7765-.0325 1.1534-.0988.3727-.065.8301-.1596.9572-.1892.127-.0297.2668-.0706.2668-.0706.0946-.0226.0875-.1271.0875-.1271l-.0028-3.5576c0-.7821-.2033-1.361-.6042-1.7195-.3982-.3572-.9854-.5379-1.745-.5379-.2852 0-.744.0395-1.0179.096 0 0-.8315.1652-1.1717.4376 0 0-.0763.048-.0353.1553l.2696.7412c.0339.0946.1243.0621.1243.0621s.0282-.0113.0621-.031c.7313-.408 1.656-.3953 1.656-.3953.4108 0 .727.0847.9402.2513.2076.1637.312.4094.312.9275v.1652c-.3261-.048-.6254-.0763-.6254-.0763zm-1.5134 2.7346c-.0879-.0609-.1624-.1392-.2188-.2301-.0833-.155-.1223-.3298-.113-.5054 0-.3431.1101-.5887.3389-.7539-.0029 0 .3275-.2922 1.1011-.2824.545.0085 1.032.0904 1.032.0904v1.7704s-.4814.1058-1.0249.1397c-.7737.048-1.1181-.2287-1.1153-.2287zm32.1642-4.7407c.0283-.0875-.031-.1299-.0564-.1398-.208-.0584-.4213-.0957-.6367-.1115-.4786-.0282-.7426.0522-.9798.1624-.2358.1087-.4969.2851-.6438.4842v-.4729c0-.0664-.0451-.1186-.1087-.1186h-.9741c-.0635 0-.1087.0522-.1087.1186v5.8051c0 .065.0522.1186.1158.1186h.9981c.0308-.0007.0601-.0136.0815-.0358s.0332-.0519.0328-.0828v-2.8997c0-.3897.0424-.7779.1271-1.0221.0819-.24.1934-.4349.3318-.5732.1311-.1329.2924-.2321.4701-.2894.3021-.088.622-.0948.9275-.0198.072.0085.1129-.0381.1384-.1059.0649-.1779.2498-.7101.2851-.8174zm-9.3713-2.6908c-.2886-.0904-.5897-.1352-.8922-.1327-.6875 0-1.2282.2004-1.6094.5929-.3784.3897-.6353.984-.7638 1.7647l-.0466.264h-.8625s-.1059-.0042-.1271.113l-.1412.8103c-.0113.0763.0226.1243.1228.1243h.84l-.8527 4.872c-.0499.3255-.1259.6466-.2273.96-.0833.24-.1637.4221-.2654.5534-.0833.1265-.205.223-.3473.2753-.1446.046-.2958.0679-.4475.0649-.0918 0-.2132-.0141-.3049-.0339-.0708-.0141-.1395-.0369-.2047-.0677 0 0-.0989-.0382-.137.0621l-.2823.7906c-.0269.0776.0113.1383.0578.1553.2872.1141.5947.1679.9036.1581.3501 0 .6706-.0494.9346-.1469.2654-.0988.4969-.271.7016-.5025.22-.2554.3878-.5513.4941-.8711.1313-.3529.2443-.7934.3332-1.3073l.8569-4.9623h1.2523s.1045.0042.127-.113l.1412-.8089c.0099-.0777-.0226-.1271-.1242-.1271h-1.2141c.0056-.0268.0607-.4659.2004-.8767.0575-.1559.148-.2975.2654-.4151.0885-.0924.1979-.1622.3191-.2032.132-.0415.2697-.0615.408-.0593.1129 0 .2259.0141.3106.031.1186.0268.1652.0395.1962.0494.1243.0381.1412 0 .1652-.0607l.2894-.8174c.0311-.0875-.0423-.1242-.0706-.1355zm-16.9778 8.4197v-8.3082c0-.0649-.0452-.1186-.1087-.1186h-1.0081c-.0635 0-.1087.0537-.1087.1186v8.3082c0 .065.0452.1172.1087.1172h1.0081c.0635 0 .1087-.0522.1087-.1172z" fill="#e6f2f1"/></g></svg>