<svg fill="none" height="48" viewBox="0 0 49 48" width="49" xmlns="http://www.w3.org/2000/svg" xmlns:xlink="http://www.w3.org/1999/xlink"><clipPath id="a"><path d="m.852905 0h48v48h-48z"/></clipPath><g clip-path="url(#a)"><path d="m10.9369 30.33c-.0026 1.3364-.5343 2.6175-1.47873 3.563-.94444.9456-2.22483 1.4788-3.56126 1.483-1.33713-.0032-2.61855-.5359-3.56386-1.4816-.9453-.9456-1.477504-2.2273-1.480145-3.5644.003699-1.3362.536435-2.6166 1.481685-3.5611.94524-.9445 2.22607-1.4763 3.56232-1.4789h5.03999zm2.542 0c.0037-1.3359.5362-2.616 1.481-3.5604.9448-.9445 2.2251-1.4764 3.561-1.4796 1.3359.0032 2.6162.5351 3.561 1.4796.9448.9444 1.4773 2.2245 1.481 3.5604v12.626c-.0032 1.3364-.5353 2.6173-1.4801 3.5624-.9449.9452-2.2255 1.4779-3.5619 1.4816-1.3364-.0037-2.617-.5364-3.5618-1.4816-.9449-.9451-1.477-2.226-1.4802-3.5624zm5.042-20.246c-1.3357-.0037-2.6157-.53581-3.5604-1.48014s-1.4774-2.22412-1.4816-3.55986c.0032-1.33643.5353-2.61725 1.4802-3.56244.9448-.945193 2.2254-1.47786318 3.5618-1.48156 1.3364.00369682 2.617.536367 3.5619 1.48156.9448.94519 1.4769 2.22601 1.4801 3.56244v5.04zm0 2.542c1.3361.0037 2.6164.5361 3.5612 1.4808.9447.9448 1.4771 2.2251 1.4808 3.5612-.0037 1.3361-.5361 2.6164-1.4808 3.5612-.9448.9447-2.2251 1.4771-3.5612 1.4808h-12.62399c-1.33644-.0032-2.61726-.5353-3.56245-1.4801-.94519-.9449-1.477858-2.2255-1.481555-3.5619.003697-1.3364.536365-2.617 1.481555-3.5619.94519-.9448 2.22601-1.4769 3.56245-1.4801zm20.244 5.042c.0037-1.3364.5364-2.617 1.4816-3.5619.9452-.9448 2.226-1.4769 3.5624-1.4801 1.3364.0032 2.6173.5353 3.5624 1.4801.9452.9449 1.4779 2.2255 1.4816 3.5619-.0037 1.3364-.5364 2.617-1.4816 3.5619-.9451.9448-2.226 1.4769-3.5624 1.4801h-5.044zm-2.536 0c-.0037 1.3368-.5366 2.6177-1.4823 3.5626-.9456.9448-2.2269 1.4768-3.5637 1.4794-1.3359-.0037-2.616-.5362-3.5604-1.481-.9445-.9448-1.4764-2.2251-1.4796-3.561v-12.624c.0026-1.33625.5344-2.61707 1.4789-3.56232.9445-.945246 2.2249-1.47798108 3.5611-1.48168 1.3371.00264088 2.6188.534845 3.5644 1.48015.9457.9453 1.4784 2.22673 1.4816 3.56385zm-5.046 20.244c1.3371.0026 2.6188.5348 3.5644 1.4802.9457.9453 1.4784 2.2267 1.4816 3.5638-.0032 1.3371-.5359 2.6185-1.4816 3.5639-.9456.9453-2.2273 1.4775-3.5644 1.4801-1.3362-.0037-2.6166-.5364-3.5611-1.4817-.9445-.9452-1.4763-2.226-1.4789-3.5623v-5.044zm0-2.536c-1.3366-.0037-2.6173-.5367-3.5618-1.4824-.9446-.9457-1.4761-2.227-1.4782-3.5636.0032-1.3357.5352-2.6158 1.4797-3.5603s2.2246-1.4765 3.5603-1.4797h12.626c1.3363.0026 2.6171.5344 3.5623 1.4789.9453.9445 1.478 2.2249 1.4817 3.5611-.0026 1.3371-.5348 2.6188-1.4801 3.5644-.9453.9457-2.2268 1.4784-3.5639 1.4816z" fill="#e6f2f1"/></g></svg>