<svg fill="none" height="48" viewBox="0 0 49 48" width="49" xmlns="http://www.w3.org/2000/svg" xmlns:xlink="http://www.w3.org/1999/xlink"><clipPath id="a"><path d="m.852905 0h48v48h-48z"/></clipPath><g clip-path="url(#a)"><path d="m48.7609 9.13794c-1.77.778-3.66 1.30796-5.65 1.54996 2.028-1.22196 3.588-3.14796 4.326-5.44596-1.902 1.11-4.01 1.918-6.254 2.368-1.792-1.918-4.346-3.118-7.182-3.118-5.434 0-9.84 4.406-9.84 9.83396 0 .78.09 1.53.254 2.248-8.18-.386-15.42999-4.314-20.28199-10.25196-.854 1.444-1.332 3.122-1.332 4.94996 0 3.42 1.74 6.426 4.376 8.192-1.614-.052-3.132-.496-4.456-1.232v.122c0 4.77 3.386 8.748 7.89199 9.654-.82599.222-1.69799.342-2.59199.342-.628 0-1.23001-.06-1.832-.172 1.262 3.906 4.88999 6.754 9.20799 6.834-3.36 2.638-7.618 4.21-12.20399 4.21-.78 0-1.558-.046-2.340005-.134 4.378005 2.788 9.535995 4.418 15.113995 4.418 18.108 0 27.998-14.992 27.998-27.972 0-.418 0-.84-.03-1.26 1.922-1.378 3.6-3.12 4.92-5.09596z" fill="#e6f2f1"/></g></svg>